{
    "asset" : {
        "generator" : "Khronos glTF Blender I/O v1.3.48",
        "version" : "2.0"
    },
    "scene" : 0,
    "scenes" : [
        {
            "name" : "Scene",
            "nodes" : [
                0,
                3
            ]
        }
    ],
    "nodes" : [
        {
            "name" : "Camera",
            "rotation" : [
                0.483536034822464,
                0.33687159419059753,
                -0.20870360732078552,
                0.7804827094078064
            ],
            "translation" : [
                7.358891487121582,
                4.958309173583984,
                6.925790786743164
            ]
        },
        {
            "mesh" : 0,
            "name" : "flag.002",
            "translation" : [
                -0.1673266887664795,
                -0.022542476654052734,
                -0.3262977600097656
            ]
        },
        {
            "children" : [
                1
            ],
            "mesh" : 1,
            "name" : "flag.001",
            "translation" : [
                -0.2273235321044922,
                0.07772117853164673,
                2.0422329902648926
            ]
        },
        {
            "children" : [
                2
            ],
            "mesh" : 2,
            "name" : "flag",
            "rotation" : [
                -0.7071067690849304,
                0,
                0,
                0.7071067690849304
            ]
        }
    ],
    "materials" : [
        {
            "emissiveFactor" : [
                0,
                0,
                0
            ],
            "name" : "texture01.001",
            "pbrMetallicRoughness" : {
                "baseColorTexture" : {
                    "index" : 0,
                    "texCoord" : 0
                },
                "metallicRoughnessTexture" : {
                    "index" : 1,
                    "texCoord" : 0
                }
            }
        }
    ],
    "meshes" : [
        {
            "name" : "gtmfc_flag_texture01_0.002",
            "primitives" : [
                {
                    "attributes" : {
                        "POSITION" : 0,
                        "NORMAL" : 1,
                        "TEXCOORD_0" : 2
                    },
                    "indices" : 3,
                    "material" : 0
                }
            ]
        },
        {
            "name" : "gtmfc_flag_texture01_0.003",
            "primitives" : [
                {
                    "attributes" : {
                        "POSITION" : 4,
                        "NORMAL" : 5,
                        "TEXCOORD_0" : 6
                    },
                    "indices" : 7,
                    "material" : 0
                }
            ]
        },
        {
            "name" : "gtmfc_flag_texture01_0.001",
            "primitives" : [
                {
                    "attributes" : {
                        "POSITION" : 8,
                        "NORMAL" : 9,
                        "TEXCOORD_0" : 10
                    },
                    "indices" : 11,
                    "material" : 0
                }
            ]
        }
    ],
    "textures" : [
        {
            "sampler" : 0,
            "source" : 0
        },
        {
            "sampler" : 1,
            "source" : 1
        }
    ],
    "images" : [
        {
            "bufferView" : 4,
            "mimeType" : "image/png",
            "name" : "texture01_baseColor"
        },
        {
            "bufferView" : 5,
            "mimeType" : "image/png",
            "name" : "texture01_metallicRoughness"
        }
    ],
    "accessors" : [
        {
            "bufferView" : 0,
            "componentType" : 5126,
            "count" : 12,
            "max" : [
                0.17817221581935883,
                0.050446294248104095,
                0.02591538429260254
            ],
            "min" : [
                -0.40800076723098755,
                -0.04335770756006241,
                -0.3154815435409546
            ],
            "type" : "VEC3"
        },
        {
            "bufferView" : 1,
            "componentType" : 5126,
            "count" : 12,
            "type" : "VEC3"
        },
        {
            "bufferView" : 2,
            "componentType" : 5126,
            "count" : 12,
            "type" : "VEC2"
        },
        {
            "bufferView" : 3,
            "componentType" : 5123,
            "count" : 12,
            "type" : "SCALAR"
        },
        {
            "bufferView" : 6,
            "componentType" : 5126,
            "count" : 14,
            "max" : [
                0.09153853356838226,
                0.039805807173252106,
                0.22585248947143555
            ],
            "min" : [
                -0.3058774471282959,
                -0.022933192551136017,
                -0.3353034257888794
            ],
            "type" : "VEC3"
        },
        {
            "bufferView" : 7,
            "componentType" : 5126,
            "count" : 14,
            "type" : "VEC3"
        },
        {
            "bufferView" : 8,
            "componentType" : 5126,
            "count" : 14,
            "type" : "VEC2"
        },
        {
            "bufferView" : 9,
            "componentType" : 5123,
            "count" : 18,
            "type" : "SCALAR"
        },
        {
            "bufferView" : 10,
            "componentType" : 5126,
            "count" : 84,
            "max" : [
                0.042858999222517014,
                0.09820300340652466,
                2.615906000137329
            ],
            "min" : [
                -0.33914801478385925,
                -0.046891000121831894,
                -0.12353800237178802
            ],
            "type" : "VEC3"
        },
        {
            "bufferView" : 11,
            "componentType" : 5126,
            "count" : 84,
            "type" : "VEC3"
        },
        {
            "bufferView" : 12,
            "componentType" : 5126,
            "count" : 84,
            "type" : "VEC2"
        },
        {
            "bufferView" : 13,
            "componentType" : 5123,
            "count" : 102,
            "type" : "SCALAR"
        }
    ],
    "bufferViews" : [
        {
            "buffer" : 0,
            "byteLength" : 144,
            "byteOffset" : 0
        },
        {
            "buffer" : 0,
            "byteLength" : 144,
            "byteOffset" : 144
        },
        {
            "buffer" : 0,
            "byteLength" : 96,
            "byteOffset" : 288
        },
        {
            "buffer" : 0,
            "byteLength" : 24,
            "byteOffset" : 384
        },
        {
            "buffer" : 0,
            "byteLength" : 335,
            "byteOffset" : 408
        },
        {
            "buffer" : 0,
            "byteLength" : 198,
            "byteOffset" : 744
        },
        {
            "buffer" : 0,
            "byteLength" : 168,
            "byteOffset" : 944
        },
        {
            "buffer" : 0,
            "byteLength" : 168,
            "byteOffset" : 1112
        },
        {
            "buffer" : 0,
            "byteLength" : 112,
            "byteOffset" : 1280
        },
        {
            "buffer" : 0,
            "byteLength" : 36,
            "byteOffset" : 1392
        },
        {
            "buffer" : 0,
            "byteLength" : 1008,
            "byteOffset" : 1428
        },
        {
            "buffer" : 0,
            "byteLength" : 1008,
            "byteOffset" : 2436
        },
        {
            "buffer" : 0,
            "byteLength" : 672,
            "byteOffset" : 3444
        },
        {
            "buffer" : 0,
            "byteLength" : 204,
            "byteOffset" : 4116
        }
    ],
    "samplers" : [
        {
            "magFilter" : 9728,
            "minFilter" : 9984
        },
        {
            "magFilter" : 9728,
            "minFilter" : 9984
        }
    ],
    "buffers" : [
        {
            "byteLength" : 4320,
            "uri" : "data:application/octet-stream;base64,"
        }
    ]
}
