{"accessors" : [{"bufferView" : 0, "byteOffset" : 0, "componentType" : 5123, "count" : 6, "type" : "SCALAR", "max" : [5], "min" : [0]}, {"bufferView" : 1, "byteOffset" : 0, "componentType" : 5126, "count" : 6, "type" : "VEC3", "max" : [118.08383178710938, 122.08383178710938, 126.08383178710938], "min" : [-1.9161670207977295, 2.0838329792022705, 6.083832740783691]}, {"bufferView" : 1, "byteOffset" : 12, "componentType" : 5126, "count" : 6, "type" : "VEC3", "max" : [130.08383178710938, 134.08383178710938, 138.08383178710938], "min" : [10.083832740783691, 14.083832740783691, 18.083833694458008]}, {"bufferView" : 0, "byteOffset" : 12, "componentType" : 5123, "count" : 6, "type" : "SCALAR", "max" : [5], "min" : [0]}, {"bufferView" : 2, "byteOffset" : 0, "componentType" : 5126, "count" : 6, "type" : "VEC3", "max" : [122.24851989746094, 126.24851989746094, 130.24851989746094], "min" : [2.248522996902466, 6.248522758483887, 10.248522758483887]}, {"bufferView" : 2, "byteOffset" : 12, "componentType" : 5126, "count" : 6, "type" : "VEC3", "max" : [134.24851989746094, 138.24851989746094, 142.24851989746094], "min" : [14.248522758483887, 18.248523712158203, 22.248523712158203]}, {"bufferView" : 0, "byteOffset" : 24, "componentType" : 5123, "count" : 6, "type" : "SCALAR", "max" : [5], "min" : [0]}, {"bufferView" : 3, "byteOffset" : 0, "componentType" : 5126, "count" : 6, "type" : "VEC3", "max" : [121.15035247802734, 125.15035247802734, 129.1503448486328], "min" : [1.1503520011901855, 5.1503520011901855, 9.150352478027344]}, {"bufferView" : 3, "byteOffset" : 12, "componentType" : 5126, "count" : 6, "type" : "VEC3", "max" : [133.1503448486328, 137.1503448486328, 141.1503448486328], "min" : [13.150352478027344, 17.150352478027344, 21.150352478027344]}, {"bufferView" : 0, "byteOffset" : 36, "componentType" : 5123, "count" : 8520, "type" : "SCALAR", "max" : [8519], "min" : [0]}, {"bufferView" : 4, "byteOffset" : 0, "componentType" : 5126, "count" : 8520, "type" : "VEC3", "max" : [272607.9375, 272611.9375, 272615.9375], "min" : [-0.04873400181531906, 3.951266050338745, 7.951265811920166]}, {"bufferView" : 4, "byteOffset" : 12, "componentType" : 5126, "count" : 8520, "type" : "VEC2", "max" : [272619.9375, 272623.9375], "min" : [11.951266288757324, 15.951266288757324]}, {"bufferView" : 4, "byteOffset" : 20, "componentType" : 5126, "count" : 8520, "type" : "VEC3", "max" : [272627.9375, 272631.9375, 272635.9375], "min" : [19.951265335083008, 23.951265335083008, 27.951265335083008]}, {"bufferView" : 0, "byteOffset" : 17076, "componentType" : 5123, "count" : 8520, "type" : "SCALAR", "max" : [8519], "min" : [0]}, {"bufferView" : 5, "byteOffset" : 0, "componentType" : 5126, "count" : 8520, "type" : "VEC3", "max" : [272608.0625, 272612.0625, 272616.0625], "min" : [0.04873400181531906, 4.048734188079834, 8.048733711242676]}, {"bufferView" : 5, "byteOffset" : 12, "componentType" : 5126, "count" : 8520, "type" : "VEC2", "max" : [272620.0625, 272624.0625], "min" : [12.048733711242676, 16.048734664916992]}, {"bufferView" : 5, "byteOffset" : 20, "componentType" : 5126, "count" : 8520, "type" : "VEC3", "max" : [272628.0625, 272632.0625, 272636.0625], "min" : [20.048734664916992, 24.048734664916992, 28.048734664916992]}, {"bufferView" : 0, "byteOffset" : 34116, "componentType" : 5123, "count" : 15360, "type" : "SCALAR", "max" : [15359], "min" : [0]}, {"bufferView" : 6, "byteOffset" : 0, "componentType" : 5126, "count" : 15360, "type" : "VEC3", "max" : [368616.0625, 368620.0625, 368624.0625], "min" : [0.06312499940395355, 4.063125133514404, 8.063124656677246]}, {"bufferView" : 6, "byteOffset" : 12, "componentType" : 5126, "count" : 15360, "type" : "VEC3", "max" : [368628.0625, 368632.0625, 368636.0625], "min" : [12.063124656677246, 16.063125610351562, 20.063125610351562]}, {"bufferView" : 0, "byteOffset" : 64836, "componentType" : 5123, "count" : 13824, "type" : "SCALAR", "max" : [13823], "min" : [0]}, {"bufferView" : 7, "byteOffset" : 0, "componentType" : 5126, "count" : 13824, "type" : "VEC3", "max" : [442336.0625, 442340.0625, 442344.0625], "min" : [0.06312499940395355, 4.063125133514404, 8.063124656677246]}, {"bufferView" : 7, "byteOffset" : 12, "componentType" : 5126, "count" : 13824, "type" : "VEC2", "max" : [442348.0625, 442352.0625], "min" : [12.063124656677246, 16.063125610351562]}, {"bufferView" : 7, "byteOffset" : 20, "componentType" : 5126, "count" : 13824, "type" : "VEC3", "max" : [442356.0625, 442360.0625, 442364.0625], "min" : [20.063125610351562, 24.063125610351562, 28.063125610351562]}, {"bufferView" : 0, "byteOffset" : 92484, "componentType" : 5123, "count" : 6960, "type" : "SCALAR", "max" : [6959], "min" : [0]}, {"bufferView" : 8, "byteOffset" : 0, "componentType" : 5126, "count" : 6960, "type" : "VEC3", "max" : [222688, 222692, 222696], "min" : [0.005948000121861696, 4.005948066711426, 8.005948066711426]}, {"bufferView" : 8, "byteOffset" : 12, "componentType" : 5126, "count" : 6960, "type" : "VEC2", "max" : [222700, 222704], "min" : [12.005948066711426, 16.00594711303711]}, {"bufferView" : 8, "byteOffset" : 20, "componentType" : 5126, "count" : 6960, "type" : "VEC3", "max" : [222708, 222712, 222716], "min" : [20.00594711303711, 24.00594711303711, 28.00594711303711]}, {"bufferView" : 0, "byteOffset" : 106404, "componentType" : 5123, "count" : 16032, "type" : "SCALAR", "max" : [16031], "min" : [0]}, {"bufferView" : 9, "byteOffset" : 0, "componentType" : 5126, "count" : 16032, "type" : "VEC3", "max" : [384744.03125, 384748.03125, 384752.03125], "min" : [0.021104000508785248, 4.021103858947754, 8.021103858947754]}, {"bufferView" : 9, "byteOffset" : 12, "componentType" : 5126, "count" : 16032, "type" : "VEC3", "max" : [384756.03125, 384760.03125, 384764.03125], "min" : [12.021103858947754, 16.02110481262207, 20.02110481262207]}, {"bufferView" : 0, "byteOffset" : 138468, "componentType" : 5123, "count" : 1536, "type" : "SCALAR", "max" : [1535], "min" : [0]}, {"bufferView" : 10, "byteOffset" : 0, "componentType" : 5126, "count" : 1536, "type" : "VEC3", "max" : [36839.93359375, 36843.93359375, 36847.93359375], "min" : [-0.06656400114297867, 3.9334359169006348, 7.933435916900635]}, {"bufferView" : 10, "byteOffset" : 12, "componentType" : 5126, "count" : 1536, "type" : "VEC3", "max" : [36851.93359375, 36855.93359375, 36859.93359375], "min" : [11.933436393737793, 15.933436393737793, 19.933435440063477]}, {"bufferView" : 0, "byteOffset" : 141540, "componentType" : 5123, "count" : 29136, "type" : "SCALAR", "max" : [29135], "min" : [0]}, {"bufferView" : 11, "byteOffset" : 0, "componentType" : 5126, "count" : 29136, "type" : "VEC3", "max" : [699240.125, 699244.125, 699248.125], "min" : [0.11772499978542328, 4.117724895477295, 8.117725372314453]}, {"bufferView" : 11, "byteOffset" : 12, "componentType" : 5126, "count" : 29136, "type" : "VEC3", "max" : [699252.125, 699256.125, 699260.125], "min" : [12.117725372314453, 16.117725372314453, 20.117725372314453]}, {"bufferView" : 0, "byteOffset" : 199812, "componentType" : 5125, "count" : 165024, "type" : "SCALAR", "max" : [165023], "min" : [0]}, {"bufferView" : 12, "byteOffset" : 0, "componentType" : 5126, "count" : 165024, "type" : "VEC3", "max" : [3960552.25, 3960556.25, 3960560.25], "min" : [0.12756000459194183, 4.127560138702393, 8.127559661865234]}, {"bufferView" : 12, "byteOffset" : 12, "componentType" : 5126, "count" : 165024, "type" : "VEC3", "max" : [3960564.25, 3960568.25, 3960572.25], "min" : [12.127559661865234, 16.127559661865234, 20.127559661865234]}, {"bufferView" : 0, "byteOffset" : 859908, "componentType" : 5123, "count" : 30528, "type" : "SCALAR", "max" : [30527], "min" : [0]}, {"bufferView" : 13, "byteOffset" : 0, "componentType" : 5126, "count" : 30528, "type" : "VEC3", "max" : [732648, 732652, 732656], "min" : [-0.010700000450015068, 3.989300012588501, 7.989299774169922]}, {"bufferView" : 13, "byteOffset" : 12, "componentType" : 5126, "count" : 30528, "type" : "VEC3", "max" : [732660, 732664, 732668], "min" : [11.989299774169922, 15.989299774169922, 19.989299774169922]}, {"bufferView" : 0, "byteOffset" : 920964, "componentType" : 5123, "count" : 2976, "type" : "SCALAR", "max" : [2975], "min" : [0]}, {"bufferView" : 14, "byteOffset" : 0, "componentType" : 5126, "count" : 2976, "type" : "VEC3", "max" : [71400.015625, 71404.015625, 71408.015625], "min" : [0.013911000452935696, 4.01391077041626, 8.013911247253418]}, {"bufferView" : 14, "byteOffset" : 12, "componentType" : 5126, "count" : 2976, "type" : "VEC3", "max" : [71412.015625, 71416.015625, 71420.015625], "min" : [12.013911247253418, 16.0139102935791, 20.0139102935791]}], "asset" : {"generator" : "Aspose.3D 20.8", "version" : "2.0"}, "buffers" : [{"uri" : "buffer.bin", "byteLength" : 8391984}], "bufferViews" : [{"buffer" : 0, "byteOffset" : 0, "byteLength" : 926916, "target" : 34963}, {"buffer" : 0, "byteOffset" : 926920, "byteLength" : 144, "byteStride" : 24, "target" : 34962}, {"buffer" : 0, "byteOffset" : 927068, "byteLength" : 144, "byteStride" : 24, "target" : 34962}, {"buffer" : 0, "byteOffset" : 927216, "byteLength" : 144, "byteStride" : 24, "target" : 34962}, {"buffer" : 0, "byteOffset" : 927364, "byteLength" : 272640, "byteStride" : 32, "target" : 34962}, {"buffer" : 0, "byteOffset" : 1200008, "byteLength" : 272640, "byteStride" : 32, "target" : 34962}, {"buffer" : 0, "byteOffset" : 1472652, "byteLength" : 368640, "byteStride" : 24, "target" : 34962}, {"buffer" : 0, "byteOffset" : 1841296, "byteLength" : 442368, "byteStride" : 32, "target" : 34962}, {"buffer" : 0, "byteOffset" : 2283668, "byteLength" : 222720, "byteStride" : 32, "target" : 34962}, {"buffer" : 0, "byteOffset" : 2506392, "byteLength" : 384768, "byteStride" : 24, "target" : 34962}, {"buffer" : 0, "byteOffset" : 2891164, "byteLength" : 36864, "byteStride" : 24, "target" : 34962}, {"buffer" : 0, "byteOffset" : 2928032, "byteLength" : 699264, "byteStride" : 24, "target" : 34962}, {"buffer" : 0, "byteOffset" : 3627300, "byteLength" : 3960576, "byteStride" : 24, "target" : 34962}, {"buffer" : 0, "byteOffset" : 7587880, "byteLength" : 732672, "byteStride" : 24, "target" : 34962}, {"buffer" : 0, "byteOffset" : 8320556, "byteLength" : 71424, "byteStride" : 24, "target" : 34962}], "meshes" : [{"primitives" : [{"attributes" : {"POSITION" : 1, "NORMAL" : 2}, "indices" : 0, "mode" : 4}]}, {"primitives" : [{"attributes" : {"POSITION" : 4, "NORMAL" : 5}, "indices" : 3, "mode" : 4}]}, {"primitives" : [{"attributes" : {"POSITION" : 7, "NORMAL" : 8}, "indices" : 6, "mode" : 4}]}, {"primitives" : [{"attributes" : {"POSITION" : 10, "TEXCOORD_0" : 11, "NORMAL" : 12}, "indices" : 9, "mode" : 4}]}, {"primitives" : [{"attributes" : {"POSITION" : 14, "TEXCOORD_0" : 15, "NORMAL" : 16}, "indices" : 13, "mode" : 4}]}, {"primitives" : [{"attributes" : {"POSITION" : 18, "NORMAL" : 19}, "indices" : 17, "mode" : 4}]}, {"primitives" : [{"attributes" : {"POSITION" : 21, "TEXCOORD_0" : 22, "NORMAL" : 23}, "indices" : 20, "mode" : 4}]}, {"primitives" : [{"attributes" : {"POSITION" : 25, "TEXCOORD_0" : 26, "NORMAL" : 27}, "indices" : 24, "mode" : 4}]}, {"primitives" : [{"attributes" : {"POSITION" : 29, "NORMAL" : 30}, "indices" : 28, "mode" : 4}]}, {"primitives" : [{"attributes" : {"POSITION" : 32, "NORMAL" : 33}, "indices" : 31, "mode" : 4}]}, {"primitives" : [{"attributes" : {"POSITION" : 35, "NORMAL" : 36}, "indices" : 34, "mode" : 4}]}, {"primitives" : [{"attributes" : {"POSITION" : 38, "NORMAL" : 39}, "indices" : 37, "mode" : 4}]}, {"primitives" : [{"attributes" : {"POSITION" : 41, "NORMAL" : 42}, "indices" : 40, "mode" : 4}]}, {"primitives" : [{"attributes" : {"POSITION" : 44, "NORMAL" : 45}, "indices" : 43, "mode" : 4}]}], "nodes" : [{"mesh" : 0, "name" : "Plane.002_Plane.005"}, {"mesh" : 1, "name" : "Plane.001_Plane.004"}, {"mesh" : 2, "name" : "Plane_Plane.003"}, {"mesh" : 3, "name" : "eye001.000_Sphere.006"}, {"mesh" : 4, "name" : "eye001.001_Sphere.005"}, {"mesh" : 5, "name" : "half_pant_Cylinder.012"}, {"mesh" : 6, "name" : "inner_pant_Cylinder.006"}, {"mesh" : 7, "name" : "inner_wear_Cylinder.009"}, {"mesh" : 8, "name" : "jacket_Cylinder.014"}, {"mesh" : 9, "name" : "knee_pad_Cylinder.000"}, {"mesh" : 10, "name" : "shoe_Cylinder.008"}, {"mesh" : 11, "name" : "anime_boy_hair_Cylinder.002"}, {"mesh" : 12, "name" : "teeth_Cube.002"}, {"mesh" : 13, "name" : "tongue_Cube"}], "scene" : 0, "scenes" : [{"nodes" : [0, 1, 2, 3, 4, 5, 6, 7, 8, 9, 10, 11, 12, 13]}]}